<svg width="13" height="13" viewBox="0 0 13 13" fill="none" xmlns="http://www.w3.org/2000/svg">
<path fill-rule="evenodd" clip-rule="evenodd" d="M6.5 0C6.89887 0 7.22222 0.32335 7.22222 0.722222V5.77778H12.2778C12.6766 5.77778 13 6.10113 13 6.5C13 6.89887 12.6766 7.22222 12.2778 7.22222H7.22222V12.2778C7.22222 12.6766 6.89887 13 6.5 13C6.10113 13 5.77778 12.6766 5.77778 12.2778V7.22222H0.722222C0.32335 7.22222 0 6.89887 0 6.5C0 6.10113 0.32335 5.77778 0.722222 5.77778H5.77778V0.722222C5.77778 0.32335 6.10113 0 6.5 0Z" fill="#282828"/>
</svg>
