<svg width="15" height="14" viewBox="0 0 15 14" fill="none" xmlns="http://www.w3.org/2000/svg">
<g clip-path="url(#clip0_23_66)">
<path d="M2.6875 0.875C2.45544 0.875 2.23288 0.967187 2.06878 1.13128C1.90469 1.29538 1.8125 1.51794 1.8125 1.75V2.625C1.8125 2.85706 1.90469 3.07962 2.06878 3.24372C2.23288 3.40781 2.45544 3.5 2.6875 3.5H3.125V11.375C3.125 11.8391 3.30937 12.2842 3.63756 12.6124C3.96575 12.9406 4.41087 13.125 4.875 13.125H10.125C10.5891 13.125 11.0342 12.9406 11.3624 12.6124C11.6906 12.2842 11.875 11.8391 11.875 11.375V3.5H12.3125C12.5446 3.5 12.7671 3.40781 12.9312 3.24372C13.0953 3.07962 13.1875 2.85706 13.1875 2.625V1.75C13.1875 1.51794 13.0953 1.29538 12.9312 1.13128C12.7671 0.967187 12.5446 0.875 12.3125 0.875H9.25C9.25 0.642936 9.15781 0.420376 8.99372 0.256282C8.82962 0.0921873 8.60706 0 8.375 0L6.625 0C6.39294 0 6.17038 0.0921873 6.00628 0.256282C5.84219 0.420376 5.75 0.642936 5.75 0.875H2.6875ZM5.3125 4.375C5.42853 4.375 5.53981 4.42109 5.62186 4.50314C5.70391 4.58519 5.75 4.69647 5.75 4.8125V10.9375C5.75 11.0535 5.70391 11.1648 5.62186 11.2469C5.53981 11.3289 5.42853 11.375 5.3125 11.375C5.19647 11.375 5.08519 11.3289 5.00314 11.2469C4.92109 11.1648 4.875 11.0535 4.875 10.9375V4.8125C4.875 4.69647 4.92109 4.58519 5.00314 4.50314C5.08519 4.42109 5.19647 4.375 5.3125 4.375V4.375ZM7.5 4.375C7.61603 4.375 7.72731 4.42109 7.80936 4.50314C7.89141 4.58519 7.9375 4.69647 7.9375 4.8125V10.9375C7.9375 11.0535 7.89141 11.1648 7.80936 11.2469C7.72731 11.3289 7.61603 11.375 7.5 11.375C7.38397 11.375 7.27269 11.3289 7.19064 11.2469C7.10859 11.1648 7.0625 11.0535 7.0625 10.9375V4.8125C7.0625 4.69647 7.10859 4.58519 7.19064 4.50314C7.27269 4.42109 7.38397 4.375 7.5 4.375V4.375ZM10.125 4.8125V10.9375C10.125 11.0535 10.0789 11.1648 9.99686 11.2469C9.91481 11.3289 9.80353 11.375 9.6875 11.375C9.57147 11.375 9.46019 11.3289 9.37814 11.2469C9.29609 11.1648 9.25 11.0535 9.25 10.9375V4.8125C9.25 4.69647 9.29609 4.58519 9.37814 4.50314C9.46019 4.42109 9.57147 4.375 9.6875 4.375C9.80353 4.375 9.91481 4.42109 9.99686 4.50314C10.0789 4.58519 10.125 4.69647 10.125 4.8125V4.8125Z" fill="#282828"/>
</g>
<defs>
<clipPath id="clip0_23_66">
<rect width="14" height="14" fill="white" transform="translate(0.5)"/>
</clipPath>
</defs>
</svg>
