<svg width="31" height="32" viewBox="0 0 31 32" fill="none" xmlns="http://www.w3.org/2000/svg">
<path fill-rule="evenodd" clip-rule="evenodd" d="M4.85611 0.942444C2.17416 0.942444 0 3.1166 0 5.79856V26.1942C0 28.8762 2.17416 31.0504 4.85612 31.0504H25.2518C27.9338 31.0504 30.1079 28.8762 30.1079 26.1942V5.79856C30.1079 3.1166 27.9338 0.942444 25.2518 0.942444H4.85611ZM23.0842 10.3052C23.4276 9.89315 23.372 9.28073 22.9599 8.93734C22.5478 8.59395 21.9354 8.64962 21.592 9.06169L12.5606 19.8993L7.48532 14.824C7.10603 14.4447 6.49109 14.4447 6.1118 14.824C5.73252 15.2033 5.73252 15.8183 6.1118 16.1975L11.9391 22.0249C12.1321 22.2178 12.3973 22.3207 12.6699 22.3084C12.9425 22.296 13.1973 22.1695 13.372 21.9599L23.0842 10.3052Z" fill="#3DBF00" fill-opacity="0.7"/>
</svg>
